<?xml version="1.0" standalone="no"?>
<!DOCTYPE svg PUBLIC "-//W3C//DTD SVG 20010904//EN"
 "http://www.w3.org/TR/2001/REC-SVG-20010904/DTD/svg10.dtd">
<svg version="1.0" xmlns="http://www.w3.org/2000/svg"
 width="512.000000pt" height="512.000000pt" viewBox="0 0 512.000000 512.000000"
 preserveAspectRatio="xMidYMid meet">
<metadata>
Created by potrace 1.11, written by Peter Selinger 2001-2013
</metadata>
<g transform="translate(0.000000,512.000000) scale(0.100000,-0.100000)"
fill="#000000" stroke="none">
<path d="M2375 4823 c-699 -61 -1323 -430 -1710 -1013 -175 -265 -290 -558
-347 -890 -32 -181 -32 -539 0 -720 85 -490 296 -901 638 -1244 359 -359 797
-574 1319 -648 116 -16 454 -16 570 0 677 96 1245 455 1618 1022 178 272 299
604 348 960 16 113 16 422 0 540 -73 541 -296 991 -677 1360 -367 356 -850
580 -1358 629 -102 10 -309 12 -401 4z m386 -213 c1053 -107 1859 -991 1859
-2041 0 -889 -554 -1667 -1392 -1954 -521 -179 -1075 -143 -1573 100 -571 278
-984 811 -1110 1430 -91 445 -35 898 161 1304 203 421 522 746 939 954 345
172 738 245 1116 207z"/>
<path d="M1528 3405 c-49 -27 -58 -60 -58 -215 0 -230 0 -230 305 -230 309 0
305 -3 305 232 l0 158 -29 32 -29 33 -234 2 c-192 2 -238 0 -260 -12z"/>
<path d="M2301 3407 c-56 -28 -66 -58 -69 -201 -4 -153 7 -193 60 -226 32 -19
49 -20 631 -20 656 0 640 -1 672 60 11 22 15 64 15 170 0 106 -4 148 -15 170
-32 61 -16 60 -672 60 -455 0 -604 -3 -622 -13z"/>
<path d="M1528 2794 c-49 -26 -58 -59 -58 -214 0 -233 -1 -232 321 -228 l231
3 29 33 29 32 0 158 c0 236 5 232 -307 232 -173 -1 -224 -4 -245 -16z"/>
<path d="M2292 2790 c-54 -33 -64 -73 -60 -233 l3 -139 37 -34 38 -34 605 0
c665 0 648 -1 680 60 22 42 21 298 -1 341 -30 59 -26 59 -676 59 -577 0 -594
-1 -626 -20z"/>
<path d="M1532 2183 c-57 -28 -64 -55 -60 -230 l3 -155 33 -29 32 -29 236 0
236 0 34 34 34 34 0 151 c0 242 2 241 -302 241 -176 0 -219 -3 -246 -17z"/>
<path d="M2292 2180 c-51 -31 -62 -70 -62 -216 0 -96 4 -134 16 -160 32 -66 9
-64 685 -64 l611 0 34 34 34 34 0 151 c0 172 -7 198 -64 225 -30 14 -99 16
-628 16 -577 0 -594 -1 -626 -20z"/>
</g>
</svg>
